# Alias OBJ Model File
# Exported from SketchUp, (c) 2000-2012 Trimble Navigation Limited
# File units = centimeters

mtllib solido.mtl

g Mesh1 Model

usemtl Color_B08
v 185.013 0 -193.836
vt -72.8396 76.3133
vn 0 -1 -0
v 185.013 0 135.064
vt -72.8396 -53.1749
v -210.587 0 135.064
vt 82.9085 -53.1749
v -210.587 0 -193.836
vt 82.9085 76.3133
f 1/1/1 2/2/1 3/3/1 4/4/1 

usemtl Color_A05
vt -53.1749 0
vn 1 0 -0
vt 76.3133 0
v 185.013 150 -193.836
vt 76.3133 59.0551
v 185.013 150 135.064
vt -53.1749 59.0551
f 2/5/2 1/6/2 5/7/2 6/8/2 

usemtl Color_B07
vt -72.8396 0
vn 0 0 -1
vt 82.9085 0
v -210.587 150 -193.836
vt 82.9085 59.0551
vt -72.8396 59.0551
f 1/9/3 4/10/3 7/11/3 5/12/3 

usemtl Color_B04
vt -76.3133 0
vn -1 0 -0
vt 53.1749 0
v -210.587 150 135.064
vt 53.1749 59.0551
vt -76.3133 59.0551
f 4/13/4 3/14/4 8/15/4 7/16/4 

usemtl Color_B02
vt -82.9085 0
vn 0 0 1
vt 72.8396 0
vt 72.8396 59.0551
vt -82.9085 59.0551
f 3/17/5 2/18/5 6/19/5 8/20/5 

usemtl Color_A01
vt 72.8396 -53.1749
vn 0 1 -0
vt 72.8396 76.3133
vt -82.9085 76.3133
vt -82.9085 -53.1749
f 6/21/6 5/22/6 7/23/6 8/24/6 

